<?xml version="1.0" encoding="utf-8"?>
<!-- Generator: Adobe Illustrator 23.0.1, SVG Export Plug-In . SVG Version: 6.00 Build 0)  -->
<svg version="1.1" id="Layer_1" xmlns="http://www.w3.org/2000/svg" xmlns:xlink="http://www.w3.org/1999/xlink" x="0px" y="0px"
	 viewBox="0 0 104.2 131.3" style="enable-background:new 0 0 104.2 131.3;" xml:space="preserve">
<style type="text/css">
	.st0{fill:#666699;stroke:#FFFFFF;stroke-miterlimit:10;}
	.st1{fill:#666699;stroke:#FFFFFF;stroke-width:5;stroke-miterlimit:10;}
	.st2{fill:none;stroke:#FFFFFF;stroke-width:5;stroke-miterlimit:10;}
	.st3{fill:#FFFFFF;}
	.st4{fill:none;stroke:#666699;stroke-width:5;stroke-miterlimit:10;}
	.st5{fill:#666699;}
	.st6{font-family:'Quicksand-Bold';}
	.st7{font-size:21.03px;}
</style>
<title>Gr8ti-tude_Logo</title>
<path class="st0" d="M7.1,30.2c-7.4-5.1-9.3-15.4-4.2-22.8s15.4-9.3,22.8-4.2c1.6,1.1,3,2.5,4.2,4.2"/>
<path class="st0" d="M73.6,7.4c5.2-7.7,15.6-9.7,23.3-4.5s9.7,15.6,4.5,23.3c-1.2,1.7-2.7,3.2-4.4,4.4"/>
<circle class="st1" cx="51.9" cy="52.3" r="50"/>
<path class="st2" d="M81,63.9c6.8-15.7-0.4-33.9-16.1-40.6c-10.8-4.7-23.2-2.8-32.2,4.7"/>
<polygon class="st3" points="87.1,65.4 76.2,71.5 76.3,59.1 "/>
<path class="st2" d="M22.9,40.7c-6.8,15.7,0.5,33.9,16.2,40.6c10.7,4.6,23.1,2.8,32.1-4.7"/>
<polygon class="st3" points="16.8,39.3 27.6,33.1 27.5,45.6 "/>
<line class="st4" x1="3.7" y1="100.6" x2="14.8" y2="89.4"/>
<line class="st4" x1="100" y1="100.4" x2="89.4" y2="89.8"/>
<text transform="matrix(1 0 0 1 0 131.26)" class="st5 st6 st7">Gr8ti-tude</text>
</svg>
