<svg id="Layer_1" data-name="Layer 1" xmlns="http://www.w3.org/2000/svg" viewBox="0 0 104.25 131.26"><defs><style>.cls-1,.cls-2,.cls-6{fill:#231f20;}.cls-1,.cls-2,.cls-3{stroke:#fff;}.cls-1,.cls-2,.cls-3,.cls-5{stroke-miterlimit:10;}.cls-2,.cls-3,.cls-5{stroke-width:5px;}.cls-3,.cls-5{fill:none;}.cls-4{fill:#fff;}.cls-5{stroke:#231f20;}.cls-6{font-size:21.03px;font-family:Quicksand-Bold, Quicksand;font-weight:700;}</style></defs><title>Gr8ti-tude_Logo</title><path class="cls-1" d="M7.05,30.25a16.39,16.39,0,1,1,22.8-22.8"/><path class="cls-1" d="M73.56,7.4A16.78,16.78,0,1,1,97,30.6"/><circle class="cls-2" cx="51.93" cy="52.32" r="50"/><path class="cls-3" d="M81,63.91A30.91,30.91,0,0,0,32.71,28"/><polygon class="cls-4" points="87.08 65.38 76.25 71.54 76.33 59.08 87.08 65.38"/><path class="cls-3" d="M22.9,40.73A30.91,30.91,0,0,0,71.15,76.64"/><polygon class="cls-4" points="16.77 39.26 27.61 33.1 27.53 45.56 16.77 39.26"/><line class="cls-5" x1="3.69" y1="100.55" x2="14.8" y2="89.44"/><line class="cls-5" x1="100" y1="100.39" x2="89.39" y2="89.79"/><text class="cls-6" transform="translate(0 131.26)">Gr8ti-tude</text></svg>