<?xml version="1.0" encoding="utf-8"?>
<!-- Generator: Adobe Illustrator 23.0.1, SVG Export Plug-In . SVG Version: 6.00 Build 0)  -->
<svg version="1.1" id="Layer_1" xmlns="http://www.w3.org/2000/svg" xmlns:xlink="http://www.w3.org/1999/xlink" x="0px" y="0px"
	 viewBox="0 0 400 300" style="enable-background:new 0 0 400 300;" xml:space="preserve">
<style type="text/css">
	.st0{fill:#81CCD8;}
	.st1{fill:#231F20;}
	.st2{fill:none;stroke:#231F20;stroke-width:5;stroke-miterlimit:10;}
	.st3{font-family:'Quicksand-Bold';}
	.st4{font-size:37.4425px;}
</style>
<rect class="st0" width="400" height="300"/>
<title>Gr8ti-tude_Logo-30</title>
<path class="st1" d="M200.2,35.1c-49.2,0-89,39.9-89,89s39.9,89,89,89s89-39.9,89-89S249.4,35.1,200.2,35.1z M199.1,184.6
	c-32.8,0-59.4-26.6-59.5-59.5c0-7.2,1.3-14.3,3.8-21l-5.8-3.4l19.3-11l-0.1,22.3l-5.5-3.2c-1.8,5.3-2.8,10.8-2.7,16.4
	c0,27.9,22.7,50.6,50.6,50.6c11.9,0,23.4-4.2,32.5-11.8l5.7,6.8C226.6,179.8,213.1,184.7,199.1,184.6L199.1,184.6z M243.6,158.2
	l0.1-22.2l5.5,3.2c1.8-5.3,2.7-10.8,2.7-16.4c0-27.9-22.7-50.6-50.6-50.5c-11.9,0-23.4,4.2-32.5,11.9l-5.7-6.8
	c25.2-21.1,62.7-17.8,83.8,7.4c9,10.7,13.9,24.2,13.9,38.2c0,7.2-1.3,14.3-3.8,21l5.8,3.4L243.6,158.2z"/>
<line class="st2" x1="114.3" y1="210" x2="134.1" y2="190.2"/>
<line class="st2" x1="285.8" y1="209.7" x2="266.9" y2="190.8"/>
<text transform="matrix(1 0 0 1 107.7735 264.6543)" class="st1 st3 st4">Gr8ti-tude</text>
<path class="st1" d="M157.4,40c-11.4-11.4-29.9-11.4-41.3,0s-11.4,29.9,0,41.3C125.2,63.6,139.7,49.1,157.4,40z"/>
<path class="st1" d="M243,40c11.6-11.1,30.1-10.8,41.2,0.9c10.8,11.3,10.8,29.1,0,40.4C275.2,63.6,260.8,49.1,243,40z"/>
</svg>
