<?xml version="1.0" encoding="utf-8"?>
<!-- Generator: Adobe Illustrator 23.0.1, SVG Export Plug-In . SVG Version: 6.00 Build 0)  -->
<svg version="1.1" id="Layer_1" xmlns="http://www.w3.org/2000/svg" xmlns:xlink="http://www.w3.org/1999/xlink" x="0px" y="0px"
	 viewBox="0 0 400 300" style="enable-background:new 0 0 400 300;" xml:space="preserve">
<style type="text/css">
	.st0{fill:none;}
	.st1{fill:#FEE101;}
	.st2{fill:none;stroke:#FEE101;stroke-width:5;stroke-miterlimit:10;}
	.st3{enable-background:new    ;}
	.st4{fill:#231F20;}
</style>
<rect class="st0" width="400" height="300"/>
<title>Gr8ti-tude_Logo-30</title>
<path class="st1" d="M200.2,35.1c-49.2,0-89,39.9-89,89s39.9,89,89,89s89-39.9,89-89S249.4,35.1,200.2,35.1z M199.1,184.6
	c-32.8,0-59.4-26.6-59.5-59.5c0-7.2,1.3-14.3,3.8-21l-5.8-3.4l19.3-11l-0.1,22.3l-5.5-3.2c-1.8,5.3-2.8,10.8-2.7,16.4
	c0,27.9,22.7,50.6,50.6,50.6c11.9,0,23.4-4.2,32.5-11.8l5.7,6.8C226.6,179.8,213.1,184.7,199.1,184.6L199.1,184.6z M243.6,158.2
	l0.1-22.2l5.5,3.2c1.8-5.3,2.7-10.8,2.7-16.4c0-27.9-22.7-50.6-50.6-50.5c-11.9,0-23.4,4.2-32.5,11.9l-5.7-6.8
	c25.2-21.1,62.7-17.8,83.8,7.4c9,10.7,13.9,24.2,13.9,38.2c0,7.2-1.3,14.3-3.8,21l5.8,3.4L243.6,158.2z"/>
<line class="st2" x1="114.3" y1="210" x2="134.1" y2="190.2"/>
<line class="st2" x1="285.8" y1="209.7" x2="266.9" y2="190.8"/>
<g class="st3">
	<path class="st4" d="M131.5,251.2c0.4,0.4,0.6,1,0.6,1.6v7.9c0,0.9-0.4,1.5-1.2,2c-2.4,1.5-5.1,2.3-8.1,2.3c-2.5,0-4.8-0.6-6.9-1.8
		c-2.1-1.2-3.8-2.8-5-4.9c-1.2-2.1-1.8-4.3-1.8-6.8s0.6-4.7,1.8-6.8c1.2-2.1,2.9-3.7,5-4.9c2.1-1.2,4.4-1.8,6.9-1.8s4.6,0.5,6.4,1.5
		c0.4,0.2,0.7,0.5,0.8,0.8s0.3,0.7,0.3,1c0,0.6-0.2,1.2-0.6,1.6c-0.4,0.5-0.9,0.7-1.5,0.7c-0.4,0-0.8-0.1-1.2-0.3
		c-1.3-0.6-2.7-0.9-4.2-0.9c-1.6,0-3.1,0.4-4.4,1.2c-1.3,0.8-2.4,1.9-3.2,3.3c-0.8,1.4-1.2,2.9-1.2,4.5c0,1.6,0.4,3.1,1.2,4.5
		c0.8,1.4,1.9,2.5,3.2,3.3c1.3,0.8,2.8,1.2,4.4,1.2c0.7,0,1.4-0.1,2.2-0.2s1.5-0.3,2.1-0.5V255h-3.5c-0.6,0-1.2-0.2-1.6-0.6
		c-0.4-0.4-0.7-1-0.7-1.6s0.2-1.2,0.7-1.6c0.4-0.4,1-0.6,1.6-0.6h6.1C130.6,250.5,131.1,250.7,131.5,251.2z"/>
	<path class="st4" d="M148.6,244.9c0.5,0.4,0.8,0.9,0.8,1.5c0,0.8-0.2,1.4-0.6,1.7c-0.4,0.4-0.9,0.6-1.4,0.6c-0.4,0-0.8-0.1-1.3-0.3
		c-0.1,0-0.2-0.1-0.5-0.1s-0.5-0.1-0.8-0.1c-0.6,0-1.3,0.2-1.9,0.6c-0.6,0.4-1.1,1-1.5,1.8c-0.4,0.8-0.6,1.8-0.6,2.9v8.9
		c0,0.6-0.2,1.2-0.6,1.6c-0.4,0.4-1,0.7-1.6,0.7c-0.6,0-1.2-0.2-1.6-0.7c-0.4-0.4-0.6-1-0.6-1.6v-15.5c0-0.6,0.2-1.2,0.6-1.6
		c0.4-0.4,1-0.7,1.6-0.7c0.6,0,1.2,0.2,1.6,0.7c0.4,0.4,0.6,1,0.6,1.6v0.5c0.6-1,1.4-1.8,2.5-2.3c1.1-0.5,2.2-0.8,3.4-0.8
		C147.4,244.2,148.1,244.5,148.6,244.9z"/>
	<path class="st4" d="M168.9,253.6c0.7,1,1,2.1,1,3.2c0,1.4-0.4,2.7-1.2,3.9c-0.8,1.2-1.8,2.1-3.2,2.8c-1.3,0.7-2.8,1-4.4,1
		c-1.6,0-3.1-0.3-4.4-1c-1.3-0.7-2.4-1.6-3.2-2.8c-0.8-1.2-1.2-2.5-1.2-3.9c0-2.4,1.2-4.3,3.6-5.8c-0.9-0.5-1.6-1.2-2.2-2
		s-0.8-1.8-0.8-3c0-1.4,0.4-2.6,1.1-3.8c0.7-1.1,1.7-2.1,2.9-2.7c1.2-0.7,2.6-1,4.1-1c1.5,0,2.9,0.3,4.1,1c1.2,0.7,2.2,1.6,2.9,2.7
		c0.7,1.1,1.1,2.4,1.1,3.8c0,1.2-0.3,2.3-0.9,3.1c-0.6,0.8-1.3,1.5-2.2,1.9C167.3,251.7,168.2,252.6,168.9,253.6z M164.1,259.4
		c0.8-0.7,1.2-1.6,1.2-2.7c0-1.1-0.4-2-1.2-2.7c-0.8-0.7-1.8-1.1-3-1.1c-1.2,0-2.2,0.4-3,1.1c-0.8,0.7-1.2,1.6-1.2,2.7
		c0,1,0.4,1.9,1.2,2.7c0.8,0.7,1.8,1.1,3,1.1C162.3,260.5,163.3,260.2,164.1,259.4z M158.5,243.6c-0.7,0.7-1,1.5-1,2.5
		c0,1,0.3,1.9,1,2.5c0.7,0.7,1.6,1,2.6,1c1,0,1.9-0.3,2.6-1s1-1.5,1-2.5c0-1-0.3-1.8-1-2.5s-1.5-1-2.6-1
		C160,242.6,159.2,242.9,158.5,243.6z"/>
	<path class="st4" d="M185.1,260.9c0.3,0.3,0.4,0.8,0.4,1.3c0,0.7-0.4,1.2-1.1,1.7s-1.6,0.7-2.5,0.7c-1.5,0-2.9-0.3-3.9-1
		c-1.1-0.7-1.6-2.1-1.6-4.2v-10.3h-1.7c-0.6,0-1.1-0.2-1.5-0.6c-0.4-0.4-0.6-0.9-0.6-1.5c0-0.6,0.2-1.1,0.6-1.4
		c0.4-0.4,0.9-0.6,1.5-0.6h1.7v-2.4c0-0.6,0.2-1.2,0.7-1.6c0.4-0.4,1-0.7,1.6-0.7c0.6,0,1.1,0.2,1.6,0.7c0.4,0.4,0.6,1,0.6,1.6v2.4
		h2.7c0.6,0,1.1,0.2,1.5,0.6c0.4,0.4,0.6,0.9,0.6,1.5c0,0.6-0.2,1.1-0.6,1.4c-0.4,0.4-0.9,0.6-1.5,0.6H181v10.1
		c0,0.5,0.1,0.9,0.4,1.1c0.3,0.2,0.6,0.4,1.1,0.4c0.2,0,0.5,0,0.8-0.2c0.3-0.1,0.6-0.2,0.9-0.2C184.5,260.4,184.9,260.6,185.1,260.9
		z"/>
	<path class="st4" d="M190,241.8c-0.3-0.3-0.5-0.8-0.5-1.5v-0.7c0-0.7,0.2-1.2,0.6-1.5c0.4-0.3,1-0.4,1.8-0.4c0.9,0,1.5,0.1,1.8,0.4
		c0.3,0.3,0.5,0.8,0.5,1.5v0.7c0,0.7-0.2,1.2-0.5,1.5c-0.4,0.3-1,0.4-1.9,0.4C190.9,242.2,190.3,242.1,190,241.8z M193.4,264
		c-0.4,0.4-1,0.7-1.6,0.7c-0.6,0-1.2-0.2-1.6-0.7c-0.4-0.4-0.6-1-0.6-1.6v-15.5c0-0.6,0.2-1.2,0.6-1.6c0.4-0.4,1-0.7,1.6-0.7
		c0.6,0,1.2,0.2,1.6,0.7c0.4,0.4,0.6,1,0.6,1.6v15.5C194.1,263,193.9,263.6,193.4,264z"/>
	<path class="st4" d="M198.8,254.8c-0.4-0.4-0.7-1-0.7-1.6c0-0.6,0.2-1.1,0.7-1.6c0.4-0.4,1-0.6,1.6-0.6h6.5c0.6,0,1.2,0.2,1.6,0.7
		c0.4,0.4,0.7,1,0.7,1.6c0,0.6-0.2,1.1-0.7,1.6c-0.4,0.4-1,0.6-1.6,0.6h-6.5C199.8,255.4,199.2,255.2,198.8,254.8z"/>
	<path class="st4" d="M224.1,260.9c0.3,0.3,0.4,0.8,0.4,1.3c0,0.7-0.4,1.2-1.1,1.7c-0.7,0.5-1.6,0.7-2.5,0.7c-1.5,0-2.9-0.3-3.9-1
		c-1.1-0.7-1.6-2.1-1.6-4.2v-10.3h-1.7c-0.6,0-1.1-0.2-1.5-0.6c-0.4-0.4-0.6-0.9-0.6-1.5c0-0.6,0.2-1.1,0.6-1.4
		c0.4-0.4,0.9-0.6,1.5-0.6h1.7v-2.4c0-0.6,0.2-1.2,0.7-1.6c0.4-0.4,1-0.7,1.6-0.7c0.6,0,1.1,0.2,1.6,0.7c0.4,0.4,0.6,1,0.6,1.6v2.4
		h2.7c0.6,0,1.1,0.2,1.5,0.6c0.4,0.4,0.6,0.9,0.6,1.5c0,0.6-0.2,1.1-0.6,1.4c-0.4,0.4-0.9,0.6-1.5,0.6H220v10.1
		c0,0.5,0.1,0.9,0.4,1.1c0.3,0.2,0.6,0.4,1.1,0.4c0.2,0,0.5,0,0.8-0.2c0.3-0.1,0.6-0.2,0.9-0.2C223.5,260.4,223.8,260.6,224.1,260.9
		z"/>
	<path class="st4" d="M245.3,245.3c0.4,0.4,0.6,1,0.6,1.6v9.5c0,2.7-0.7,4.8-2.2,6.3c-1.5,1.5-3.6,2.3-6.3,2.3
		c-2.7,0-4.9-0.8-6.3-2.3s-2.2-3.6-2.2-6.3v-9.5c0-0.6,0.2-1.2,0.6-1.6c0.4-0.4,1-0.7,1.6-0.7c0.6,0,1.2,0.2,1.6,0.7
		c0.4,0.4,0.6,1,0.6,1.6v9.5c0,1.5,0.3,2.7,1,3.4s1.7,1.1,3,1.1c1.4,0,2.4-0.4,3.1-1.1s1-1.9,1-3.4v-9.5c0-0.6,0.2-1.2,0.6-1.6
		c0.4-0.4,1-0.7,1.6-0.7C244.3,244.6,244.9,244.8,245.3,245.3z"/>
	<path class="st4" d="M268.6,237.6c0.4,0.4,0.6,1,0.6,1.6v23.1c0,0.6-0.2,1.2-0.6,1.6c-0.4,0.4-1,0.7-1.6,0.7
		c-0.6,0-1.2-0.2-1.6-0.6c-0.4-0.4-0.6-1-0.7-1.6c-0.6,0.7-1.5,1.3-2.5,1.9c-1.1,0.5-2.2,0.8-3.4,0.8c-1.7,0-3.3-0.4-4.7-1.3
		c-1.4-0.9-2.5-2.1-3.3-3.7c-0.8-1.6-1.2-3.4-1.2-5.4s0.4-3.8,1.2-5.4s1.9-2.8,3.3-3.7c1.4-0.9,2.9-1.3,4.6-1.3
		c1.2,0,2.3,0.2,3.4,0.7c1,0.4,1.9,1,2.7,1.7v-7.3c0-0.6,0.2-1.2,0.6-1.6s1-0.7,1.6-0.7C267.7,236.9,268.2,237.2,268.6,237.6z
		 M263.4,259.1c1-1.2,1.5-2.7,1.5-4.5s-0.5-3.3-1.5-4.5s-2.3-1.8-4-1.8c-1.6,0-2.9,0.6-3.9,1.8s-1.5,2.7-1.5,4.5s0.5,3.3,1.5,4.5
		s2.3,1.8,4,1.8C261.1,260.9,262.4,260.3,263.4,259.1z"/>
	<path class="st4" d="M291.4,255.6c-0.4,0.4-1,0.6-1.6,0.6h-12.4c0.3,1.5,1,2.6,2.1,3.5c1.1,0.8,2.3,1.3,3.6,1.3
		c1,0,1.8-0.1,2.4-0.3c0.6-0.2,1-0.4,1.4-0.6s0.6-0.4,0.7-0.4c0.4-0.2,0.9-0.3,1.3-0.3c0.5,0,1,0.2,1.3,0.6c0.4,0.4,0.6,0.8,0.6,1.3
		c0,0.7-0.3,1.3-1,1.8c-0.7,0.6-1.6,1.1-2.8,1.5c-1.2,0.4-2.4,0.6-3.6,0.6c-2.1,0-3.9-0.4-5.5-1.3c-1.6-0.9-2.8-2.1-3.6-3.6
		c-0.8-1.5-1.3-3.3-1.3-5.2c0-2.1,0.4-4,1.3-5.7c0.9-1.6,2.1-2.9,3.6-3.7c1.5-0.9,3-1.3,4.7-1.3c1.6,0,3.2,0.4,4.7,1.3
		c1.5,0.9,2.6,2.1,3.5,3.6c0.9,1.5,1.3,3.2,1.3,4.9C292.1,254.8,291.8,255.3,291.4,255.6z M277.5,252.4h9.8v-0.3
		c-0.1-1-0.6-1.9-1.5-2.7s-2-1.1-3.1-1.1C279.7,248.4,278,249.7,277.5,252.4z"/>
</g>
<path class="st1" d="M157.4,40c-11.4-11.4-29.9-11.4-41.3,0s-11.4,29.9,0,41.3C125.2,63.6,139.7,49.1,157.4,40z"/>
<path class="st1" d="M243,40c11.6-11.1,30.1-10.8,41.2,0.9c10.8,11.3,10.8,29.1,0,40.4C275.2,63.6,260.8,49.1,243,40z"/>
</svg>
